<svg xmlns="http://www.w3.org/2000/svg" xml:space="preserve" width="1500" height="1500" stroke="#000" data-id="lg_T3VH8rEjKqXS2qKNaw" data-version="1" viewBox="0 0 1500 1500"><path fill="#fff" stroke="transparent" d="M0 0h1500v1500H0z"/><g data-padding="20"><g transform="translate(-599.829 -615.007)scale(1.75678)"><path fill="#fff" stroke="#696969" stroke-width="2.6" d="M515.684 764.296a24.24 24.24 0 1 0 0 48.48 24.24 24.24 0 1 0 0-48.48Z" paint-order="stroke"/><rect width="511.384" height="94.92" x="130.167" y="358.599" fill="none" rx="0" ry="0" transform="matrix(.96 0 0 .96 426.758 387.176)"/><path fill="#696969" d="M569.701 803.622q0-.509.02-2.237.02-1.737.038-4.022t.02-4.483v-3.725q0-1.517-.039-1.594-1.104-2.6-2.343-5.155-1.238-2.563-2.457-5.078-2.919-6.308-5.904-12.528-2.996-6.22-6.03-12.442-.354-.71-.354-1.22 0-.748.633-.92.624-.183 1.143-.183h8.736q.988 0 1.497.99.826 1.573 1.517 3.378.691 1.814 1.402 3.465 1.728 4.215 3.465 8.43 1.728 4.214 3.543 8.428.076.115.172.317.096.192.26.192.192 0 .297-.21.096-.222.135-.337 1.776-4.215 3.465-8.43 1.69-4.214 3.39-8.39.623-1.488 1.391-3.504.768-2.006 1.44-3.34.547-.99 1.498-.99h8.697q.557 0 1.181.183.634.173.634.922 0 .547-.356 1.257-3.187 6.538-6.393 13.018-3.216 6.48-6.365 13.056-1.104 2.237-2.208 4.502-1.094 2.266-2.122 4.59l-.038.191q0 3.946.038 7.92t.04 7.95q0 1.621-1.614 1.621h-6.816q-1.613 0-1.613-1.622m27.6-16.07q0-5.472 2.343-9.763t6.556-6.797q4.215-2.496 9.725-2.496 5.434 0 9.485 2.458 4.06 2.467 6.326 6.71 2.266 4.253 2.266 9.571 0 5.472-2.246 9.706t-6.327 6.634q-4.07 2.41-9.657 2.41-5.559 0-9.716-2.305-4.147-2.304-6.45-6.44-2.305-4.139-2.305-9.688m18.423-11.106q-2.986 0-4.992 1.594-2.016 1.603-3.034 4.08-1.027 2.476-1.027 5.193 0 2.563 1.085 4.925t3.09 3.86q2.007 1.497 4.762 1.497 2.996 0 4.983-1.517t2.995-3.917q.998-2.4.998-5.117 0-2.64-.998-5.059-1.008-2.429-2.976-3.984t-4.886-1.555m56.122 28.79h-5.396q-1.382 0-1.612-1.42-.125-.789-.22-1.595t-.174-1.594q0-.124-.086-.412-.077-.298-.27-.298-.162 0-.335.173-.183.182-.26.297-2.6 2.996-6.316 4.292-3.725 1.305-7.623 1.305-3.187 0-6.163-1.123-2.966-1.123-4.877-3.446t-1.91-5.914q0-4.56.058-9.149.057-4.589.057-9.12v-6.096q0-1.622 1.613-1.622h6.067q1.613 0 1.613 1.622v6.183q0 3.696-.038 7.44-.039 3.734 0 7.478.076 3.11 2.025 4.387 1.95 1.287 4.79 1.287 3.543 0 6.02-1.892 2.477-1.89 3.801-4.867 1.316-2.966 1.316-6.2v-13.816q0-1.622 1.612-1.622h6.03q1.612 0 1.612 1.622 0 1.69-.02 3.38-.018 1.7-.018 3.388 0 4.33.057 8.707.058 4.368.096 8.698.048 2.045.106 4.118.057 2.064.057 4.148 0 1.66-1.612 1.66m5.424-49.143q0-2.17 1.612-3.725 1.623-1.555 3.783-1.555 2.208 0 3.878 1.594 1.67 1.593 1.67 3.84 0 2.17-1.593 3.763-1.594 1.593-3.792 1.593-2.246 0-3.898-1.632-1.66-1.632-1.66-3.878m.595 23.74v-8.697q0-1.622 1.613-1.622h6.067q1.613 0 1.613 1.622 0 8.112.038 16.243.038 8.122.038 16.234 0 1.622-1.612 1.622h-6.22q-1.614 0-1.614-1.622 0-5.942.038-11.885.04-5.952.04-11.894m37.045 16.35q.547 0 .845.354t.49.787q.163.317.633 1.536t.883 2.4.413 1.421q0 .864-1.353 1.498-1.364.624-3.255 1.017-1.88.394-3.58.576-1.69.173-2.4.173-8.305 0-12.95-4.915-4.647-4.925-4.647-13.114 0-5.472 2.14-9.85 2.15-4.367 6.202-6.92 4.06-2.564 9.725-2.564 2.208 0 4.761.49 2.564.5 4.493 1.555.394.201.653.451.25.26.25.73 0 .393-.192.787l-1.815 4.57q-.432 1.103-1.373 1.103-.393 0-.873-.2-1.296-.433-2.592-.72-1.306-.299-2.679-.299-4.76 0-7.065 2.995-2.304 2.986-2.304 7.44 0 4.292 2.18 7.22 2.188 2.937 6.796 2.937 1.497 0 2.87-.355 1.383-.355 2.755-.864.24-.077.48-.163.23-.077.51-.077m13.333 9.062h-6.182q-1.613 0-1.613-1.66 0-2.16.058-4.31.057-2.142.096-4.31.076-4.532.115-9.054.048-4.53.048-9.062 0-4.522-.048-9.053-.039-4.53-.115-9.053-.039-2.17-.096-4.31-.058-2.15-.058-4.32 0-1.652 1.613-1.652h5.98q.951 0 1.25.394.287.394.373 1.22.077.518.038 1.103-.038.595 0 1.143l.04 5.28q.037 3.936.056 7.89.02 3.956.02 7.94 0 .077.02.451.018.375.258.375.192 0 .394-.202.192-.192.268-.317 4.772-5.155 12.048-5.155 3.11 0 5.79 1.238t4.358 3.61q1.67 2.362 1.67 5.664 0 6.106.134 12.25.144 6.144.144 12.24 0 1.66-1.622 1.66H747.1q-.94 0-1.239-.393-.288-.394-.374-1.229-.154-1.334-.096-3.245t.02-3.33q-.039-3.659-.039-7.297v-7.306q0-2.793-1.575-4.195t-4.253-1.4q-3.312 0-5.414 2.072-2.102 2.064-3.13 5.06-1.027 2.985-1.027 5.827 0 3.465-.038 6.912l-.077 6.902q0 1.622-1.613 1.622m30.481-49.15q0-2.17 1.612-3.726t3.783-1.555q2.208 0 3.878 1.594 1.67 1.593 1.67 3.84 0 2.17-1.593 3.763-1.594 1.593-3.802 1.593-2.236 0-3.897-1.632-1.65-1.632-1.65-3.878m.594 23.74v-8.697q0-1.622 1.613-1.622h6.057q1.613 0 1.613 1.622 0 8.112.048 16.243.038 8.122.038 16.234 0 1.622-1.612 1.622h-6.23q-1.614 0-1.614-1.622 0-5.942.04-11.885.047-5.952.047-11.894m41.011-4.128q0 2.36-.02 4.713-.018 2.342-.018 4.665 0 3.543 1.718 6.04 1.71 2.504 4.54 3.82 2.842 1.315 6.145 1.315 5.165 0 8.707-2.87t3.542-8.305q0-2.323-.019-4.665-.019-2.352-.019-4.714 0-4.09.02-8.189.018-4.09.057-8.188l.038-5.79.04-1.929q.075-.787.411-1.18.336-.394 1.2-.394h6.663q1.613 0 1.613 1.651 0 2.17-.058 4.32-.067 2.14-.144 4.272-.115 8.15-.115 16.262 0 2.16.02 4.368.02 2.2.02 4.407-.04 6.297-3.055 10.905t-8.016 7.114q-4.992 2.496-11.097 2.496-6.067 0-11.088-2.496-5.02-2.506-8.007-7.114-2.995-4.608-2.995-10.905 0-2.208.02-4.407.02-2.208.02-4.368 0-8.112-.117-16.262-.038-2.13-.124-4.272-.077-2.15-.077-4.32 0-1.65 1.613-1.65h6.816q.864 0 1.2.392t.412 1.181l.04 1.93.037 5.79q.04 4.098.058 8.187.02 4.1.02 8.19m56.581 30.48q-5.75 0-10.022-2.286-4.272-2.284-6.634-6.499t-2.36-9.993q0-5.396 2.245-9.687 2.237-4.29 6.336-6.797 4.1-2.496 9.61-2.496 6.806 0 10.685 3.812 3.878 3.82 5.26 10.166.04.115.04.394 0 .585-.299.883-.297.297-.768.49-1.334.633-2.832 1.103t-2.918 1.028q-4.128 1.536-8.304 3.004-4.176 1.48-8.266 3.14-.317.153-.317.393 0 .115.077.27 1.575 2.841 4.33 4.213 2.755 1.383 5.904 1.383 2.486 0 4.627-.787 2.15-.788 4.234-1.968.278-.164.556-.279.27-.115.548-.115.556 0 .844.326.298.336.5.768.153.28.604 1.248.452.96.864 1.93.423.96.423 1.238 0 .432-.24.71-.24.27-.557.51-2.794 1.93-6.787 2.908-3.994.99-7.383.99m-9.888-19.172q3.984-1.382 7.96-2.765 3.973-1.373 7.91-2.755-.98-2.16-2.737-3.773-1.747-1.622-4.31-1.622-2.995 0-4.963 1.622-1.968 1.613-2.91 4.11-.95 2.505-.95 5.183m35.434 18.23h-6.182q-1.613 0-1.613-1.66 0-2.16.057-4.31.068-2.142.106-4.31.077-4.532.115-9.054.04-4.53.04-9.062 0-4.522-.04-9.053t-.115-9.053q-.038-2.17-.106-4.31-.057-2.15-.057-4.32 0-1.652 1.613-1.652h5.99q.94 0 1.238.394t.375 1.22q.077.518.038 1.103-.038.595 0 1.143l.04 5.28q.037 3.936.056 7.89.02 3.956.02 7.94 0 .077.02.451.027.375.258.375.201 0 .393-.202.202-.192.28-.317 4.76-5.155 12.047-5.155 3.11 0 5.79 1.238t4.347 3.61q1.67 2.362 1.67 5.664 0 6.106.145 12.25.134 6.144.134 12.24 0 1.66-1.613 1.66h-6.182q-.94 0-1.238-.393-.298-.394-.375-1.229-.163-1.334-.096-3.245.058-1.91.02-3.33-.039-3.659-.039-7.297v-7.306q0-2.793-1.584-4.195-1.574-1.4-4.243-1.4-3.312 0-5.415 2.072-2.112 2.064-3.139 5.06-1.017 2.985-1.017 5.827 0 3.465-.039 6.912l-.077 6.902q0 1.622-1.622 1.622m44.688.75q-5.117 0-8.582-2.449-3.466-2.438-5.213-6.47-1.757-4.042-1.757-8.765v-.634q.077-4.963 2.064-9.33 1.997-4.369 5.77-7.066 3.782-2.698 9.14-2.698 3.301 0 6.162 1.238 2.851 1.24 5.328 3.37.278.278.48.278.47 0 .451-.988-.019-.98.28-1.968.287-.99 1.554-.99h5.55q1.611 0 1.611 1.623 0 1.69-.019 3.38-.019 1.7-.019 3.388 0 4.33.058 8.707.057 4.368.096 8.698.038 2.045.105 4.118.058 2.064.058 4.148 0 1.66-1.613 1.66h-6.182q-1.066 0-1.383-.69-.317-.692-.278-1.633.048-.95 0-1.699 0-.115-.039-.394t-.23-.278q-.163 0-.298.125-.134.115-.259.192-2.755 2.323-5.942 3.725-3.187 1.401-6.893 1.401m4.022-8.39q2.794 0 5.175-1.163t3.715-3.686q.086-.154.374-.807.298-.643.298-.806 0-1.373-.02-2.755-.018-1.373-.018-2.717 0-.634.038-1.402.038-.758-.038-1.353-.039-.279-.298-.826-.25-.557-.374-.787-1.373-2.486-3.898-3.706-2.515-1.219-5.27-1.219-2.919 0-5.117 1.46-2.208 1.46-3.447 3.84-1.248 2.38-1.248 5.212 0 2.842 1.306 5.28 1.296 2.44 3.6 3.936 2.304 1.498 5.222 1.498m24.76-28.08h5.28q1.487 0 1.612 1.46l.393 4.492q0 .038.077.566.077.538.278.538.192 0 .413-.432.211-.442.25-.519 1.622-3.033 3.945-4.76 2.324-1.739 5.866-1.739.826 0 2.102.144 1.277.135 1.277 1.315 0 .596-.23 1.853-.24 1.258-.538 2.544-.288 1.277-.45 1.95-.155.661-.49 1.036t-1.124.374q-.393 0-.768-.057-.374-.058-.806-.058-3.11 0-5.232 1.95-2.13 1.948-3.197 4.78-1.056 2.841-1.056 5.596v13.066q0 1.622-1.622 1.622h-6.096q-1.623 0-1.623-1.66 0-6.096.067-12.183.058-6.086.058-12.144v-8.112q0-1.622 1.613-1.622m35.673 36.47q-5.126 0-8.592-2.448-3.465-2.438-5.212-6.47-1.757-4.042-1.757-8.765v-.634q.086-4.963 2.073-9.33 1.988-4.369 5.77-7.066 3.773-2.698 9.13-2.698 3.312 0 6.163 1.238 2.851 1.24 5.337 3.37.28.278.47.278.471 0 .452-.988-.02-.98.278-1.968.298-.99 1.556-.99h5.548q1.613 0 1.613 1.623 0 1.69-.019 3.38-.02 1.7-.02 3.388 0 4.33.058 8.707.068 4.368.106 8.698.038 2.045.096 4.118.058 2.064.058 4.148 0 1.66-1.613 1.66h-6.183q-1.065 0-1.382-.69-.307-.692-.269-1.633.04-.95 0-1.699 0-.115-.038-.394t-.24-.278q-.154 0-.298.125-.134.115-.25.192-2.755 2.323-5.95 3.725-3.189 1.401-6.885 1.401m4.013-8.39q2.794 0 5.175-1.162t3.724-3.686q.077-.154.375-.807.297-.643.297-.806 0-1.373-.019-2.755-.029-1.373-.029-2.717 0-.634.048-1.402.04-.758-.048-1.353-.038-.279-.288-.826-.259-.557-.374-.787-1.382-2.486-3.898-3.706-2.524-1.219-5.28-1.219-2.908 0-5.116 1.46t-3.447 3.84-1.238 5.212q0 2.842 1.296 5.28t3.6 3.936 5.222 1.498M523.85 773.366l-6.136 6.136-6.136-6.136-11.064 11.064 6.136 6.136-6.136 6.136 11.064 11.064 6.136-6.136 6.136 6.136 11.064-11.064-6.136-6.136 6.136-6.136Z"/></g><path fill="transparent" stroke="transparent" stroke-width="1.824" d="M261.342 667.004H1250v165.992H261.342z"/></g></svg>